<svg width="130" height="80" viewBox="0 0 130 80" fill="none" xmlns="http://www.w3.org/2000/svg">
<path d="M64.2946 79.6042C63.854 79.6042 63.4426 79.4868 63.0604 79.2811L59.1524 76.9598C58.5645 76.6364 58.8584 76.5189 59.0349 76.4602C59.8282 76.1958 59.9751 76.1368 60.7979 75.6669C60.8861 75.6079 61.0038 75.6374 61.0918 75.6962L64.0891 77.4886C64.2066 77.5474 64.3536 77.5474 64.4415 77.4886L76.1663 70.7007C76.2838 70.6419 76.3427 70.5242 76.3427 70.3775V56.831C76.3427 56.6838 76.2838 56.5666 76.1663 56.5076L64.4415 49.7491C64.3241 49.6902 64.1771 49.6902 64.0891 49.7491L52.3644 56.5076C52.2469 56.5664 52.1879 56.7133 52.1879 56.8308V70.3772C52.1879 70.495 52.2469 70.6417 52.3644 70.7007L55.5674 72.5518C57.3012 73.4333 58.3883 72.4049 58.3883 71.3764V58.0062C58.3883 57.83 58.5353 57.6535 58.741 57.6535H60.2395C60.416 57.6535 60.5922 57.8005 60.5922 58.0062V71.3764C60.5922 73.6978 59.3286 75.0496 57.1247 75.0496C56.4489 75.0496 55.9201 75.0496 54.4213 74.3148L51.3359 72.5518C50.5719 72.1112 50.1018 71.2882 50.1018 70.4067V56.8603C50.1018 55.9788 50.5719 55.1558 51.3359 54.7152L63.0604 47.9272C63.7952 47.5158 64.7944 47.5158 65.529 47.9272L77.2535 54.7152C78.0175 55.1558 78.4878 55.9788 78.4878 56.8603V70.4067C78.4878 71.2882 78.0175 72.1112 77.2535 72.5518L65.529 79.3398C65.1468 79.5163 64.7062 79.6042 64.2948 79.6042H64.2946ZM67.909 70.2893C62.7668 70.2893 61.7088 67.9385 61.7088 65.9403C61.7088 65.7639 61.8558 65.5877 62.0615 65.5877H63.5895C63.7657 65.5877 63.9127 65.7051 63.9127 65.8816C64.1479 67.4389 64.8237 68.2029 67.9385 68.2029C70.4068 68.2029 71.4649 67.6446 71.4649 66.3222C71.4649 65.5582 71.1708 65.0001 67.3214 64.618C64.1184 64.2946 62.1202 63.5895 62.1202 61.033C62.1202 58.6527 64.1186 57.2422 67.4684 57.2422C71.2295 57.2422 73.081 58.5353 73.3161 61.3559C73.3161 61.4444 73.2866 61.5324 73.2279 61.6206C73.1689 61.6793 73.081 61.7381 72.9927 61.7381H71.4647C71.3177 61.7381 71.1708 61.6206 71.1415 61.4736C70.7889 59.8576 69.8779 59.3285 67.4684 59.3285C64.7649 59.3285 64.4415 60.269 64.4415 60.974C64.4415 61.8263 64.8237 62.0907 68.4673 62.5608C72.0818 63.0312 73.7862 63.707 73.7862 66.234C73.7568 68.82 71.6411 70.2893 67.909 70.2893Z" fill="#539E43"/>
<path d="M27.9159 26.6231C27.9159 26.0943 27.622 25.5944 27.1519 25.33L14.6926 18.1602C14.4867 18.0424 14.2518 17.9837 14.0168 17.9542H13.8991C13.6642 17.9542 13.429 18.0424 13.2233 18.1602L0.764022 25.33C0.293659 25.5944 0 26.094 0 26.6231L0.029493 45.8996C0.029493 46.1641 0.17645 46.4285 0.411377 46.5462C0.646559 46.6931 0.940218 46.6931 1.14616 46.5462L8.5512 42.3147C9.02131 42.0503 9.31523 41.5507 9.31523 41.0218V32.0005C9.31523 31.4717 9.60888 30.9721 10.0792 30.7077L13.2233 28.8857C13.4585 28.7387 13.7229 28.6798 13.9873 28.6798C14.2518 28.6798 14.5162 28.7387 14.7221 28.8857L17.8662 30.7077C18.3365 30.9721 18.6302 31.4714 18.6302 32.0005V41.0218C18.6302 41.5507 18.9241 42.0503 19.3942 42.3147L26.7993 46.5462C26.9137 46.6182 27.0461 46.6564 27.1813 46.6564C27.3165 46.6564 27.4489 46.6182 27.5633 46.5462C27.7985 46.4285 27.9454 46.1641 27.9454 45.8996L27.9159 26.6231ZM87.8028 0.0882884C87.5679 -0.0294295 87.274 -0.0294295 87.068 0.0882884C86.8331 0.235245 86.6862 0.470173 86.6862 0.734593V19.8352C86.6862 20.0113 86.5982 20.1875 86.4217 20.3053C86.2455 20.3932 86.0691 20.3932 85.8929 20.3053L82.7781 18.5128C82.5497 18.3828 82.2915 18.3144 82.0287 18.3144C81.7659 18.3144 81.5076 18.3828 81.2793 18.5128L68.82 25.7121C68.3499 25.9766 68.056 26.4762 68.056 27.005V41.3742C68.056 41.9031 68.3499 42.4029 68.82 42.6673L81.2793 49.8667C81.5076 49.9967 81.7659 50.0651 82.0287 50.0651C82.2915 50.0651 82.5497 49.9967 82.7781 49.8667L95.2374 42.6673C95.7075 42.4029 96.0014 41.9033 96.0014 41.3742V5.55391C96.0014 4.99557 95.7075 4.49623 95.2374 4.23155L87.8031 0.0882884H87.8028ZM86.6569 36.6434C86.6569 36.7903 86.5982 36.9078 86.4805 36.9665L82.2197 39.4348C82.1602 39.4638 82.0949 39.4789 82.0287 39.4789C81.9625 39.4789 81.8971 39.4638 81.8376 39.4348L77.5769 36.9665C77.4592 36.9078 77.4004 36.7609 77.4004 36.6434V31.7066C77.4004 31.5597 77.4592 31.4422 77.5769 31.3835L81.8376 28.9149C81.8971 28.8859 81.9625 28.8708 82.0287 28.8708C82.0949 28.8708 82.1602 28.8859 82.2197 28.9149L86.4805 31.3835C86.5982 31.4419 86.6569 31.5891 86.6569 31.7066V36.6434ZM129.265 31.5891C129.736 31.3247 130 30.8251 130 30.296V26.7993C130 26.2705 129.706 25.7709 129.265 25.5065L116.894 18.3366C116.666 18.2066 116.408 18.1382 116.145 18.1382C115.882 18.1382 115.624 18.2066 115.395 18.3366L102.936 25.5357C102.466 25.8001 102.172 26.2997 102.172 26.8286V41.198C102.172 41.7269 102.466 42.2265 102.936 42.4909L115.307 49.5433C115.777 49.8077 116.336 49.8077 116.777 49.5433L124.27 45.371C124.505 45.2533 124.652 44.9889 124.652 44.7245C124.652 44.4601 124.505 44.1956 124.27 44.0779L111.752 36.8786C111.517 36.7316 111.37 36.4967 111.37 36.2323V31.7364C111.37 31.4719 111.517 31.2075 111.752 31.0898L115.66 28.8565C115.774 28.7845 115.907 28.7463 116.042 28.7463C116.177 28.7463 116.309 28.7845 116.424 28.8565L120.332 31.0898C120.567 31.2368 120.714 31.4717 120.714 31.7364V35.2626C120.714 35.527 120.861 35.7914 121.096 35.9089C121.211 35.9809 121.343 36.0191 121.478 36.0191C121.613 36.0191 121.746 35.9809 121.86 35.9089L129.265 31.5891V31.5891Z" fill="#333333"/>
<path d="M115.954 30.9137C115.997 30.885 116.048 30.8696 116.101 30.8696C116.153 30.8696 116.204 30.885 116.248 30.9137L118.628 32.2948C118.716 32.3538 118.775 32.4418 118.775 32.5592V35.3217C118.775 35.4391 118.716 35.5273 118.628 35.5861L116.248 36.9672C116.204 36.9959 116.153 37.0113 116.101 37.0113C116.048 37.0113 115.997 36.9959 115.954 36.9672L113.574 35.5861C113.485 35.5273 113.427 35.4391 113.427 35.3217V32.5595C113.427 32.4418 113.485 32.3535 113.574 32.2951L115.954 30.9137V30.9137Z" fill="#539E43"/>
<path d="M48.75 18.3956C48.5216 18.2656 48.2634 18.1973 48.0007 18.1973C47.738 18.1973 47.4797 18.2656 47.2514 18.3956L34.8804 25.5357C34.41 25.8001 34.1456 26.2997 34.1456 26.8286V41.1393C34.1456 41.6681 34.4395 42.1677 34.8804 42.4322L47.2514 49.5728C47.4797 49.7028 47.738 49.7711 48.0007 49.7711C48.2634 49.7711 48.5216 49.7028 48.75 49.5728L61.1213 42.4322C61.5914 42.1677 61.8561 41.6681 61.8561 41.1393V26.8288C61.8561 26.3 61.5619 25.8004 61.1213 25.536L48.75 18.3956Z" fill="url(#paint0_linear_83_17)"/>
<defs>
<linearGradient id="paint0_linear_83_17" x1="53.0408" y1="23.7186" x2="39.4809" y2="45.0252" gradientUnits="userSpaceOnUse">
<stop stop-color="#41873F"/>
<stop offset="0.3288" stop-color="#418B3D"/>
<stop offset="0.6352" stop-color="#419637"/>
<stop offset="0.9319" stop-color="#3FA92D"/>
<stop offset="1" stop-color="#3FAE2A"/>
</linearGradient>
</defs>
</svg>
